<svg width="54" height="54" viewBox="0 0 54 54" fill="none" xmlns="http://www.w3.org/2000/svg">
<path d="M53 27C53 41.3594 41.3594 53 27 53C12.6406 53 1 41.3594 1 27C1 12.6406 12.6406 1 27 1C41.3594 1 53 12.6406 53 27Z" fill="white" fill-opacity="0.3" stroke="#210945" stroke-width="2"/>
<path fill-rule="evenodd" clip-rule="evenodd" d="M23.0853 17.9373L34.8669 25.9171C35.4556 26.3158 35.6147 27.1238 35.2222 27.7218C35.1284 27.8648 35.0077 27.9875 34.8669 28.0828L23.0853 36.0625C22.4967 36.4612 21.7013 36.2996 21.3089 35.7016C21.1686 35.4878 21.0938 35.2366 21.0938 34.9797V19.0202C21.0938 18.3014 21.6673 17.7188 22.3747 17.7188C22.6276 17.7188 22.8749 17.7948 23.0853 17.9373Z" fill="#210945"/>
</svg>
