<svg width="16" height="16" viewBox="0 0 16 16" fill="none" xmlns="http://www.w3.org/2000/svg">
<g opacity="0.9">
<path fill-rule="evenodd" clip-rule="evenodd" d="M12.8 11.68L15.76 14.64C16.08 14.96 16.08 15.44 15.76 15.76C15.6 15.92 15.36 16 15.2 16C15.04 16 14.8 15.92 14.64 15.76L11.68 12.8C10.48 13.84 8.88 14.4 7.2 14.4C3.2 14.4 0 11.2 0 7.2C0 3.2 3.2 0 7.2 0C11.2 0 14.4 3.2 14.4 7.2C14.4 8.88 13.76 10.48 12.8 11.68ZM7.2001 1.6C4.0801 1.6 1.6001 4.08 1.6001 7.2C1.6001 10.32 4.0801 12.8 7.2801 12.72C8.8001 12.72 10.1601 12.16 11.2001 11.12C12.1601 10.16 12.8001 8.72 12.8001 7.2C12.8001 4.08 10.3201 1.6 7.2001 1.6Z" fill="#363941"/>
</g>
</svg>
