<svg width="7" height="12" viewBox="0 0 7 12" fill="none" xmlns="http://www.w3.org/2000/svg">
<path d="M6.2227 5.97033C6.21538 5.84328 6.16223 5.72269 6.07244 5.62943L0.981538 0.311245C0.844195 0.168075 0.638066 0.10645 0.440821 0.149593C0.243576 0.192737 0.0851936 0.334089 0.0253526 0.52039C-0.0344883 0.70669 0.0133072 0.909623 0.150729 1.05272L4.8881 6.00017L0.150729 10.9476C0.0133148 11.0907 -0.0344751 11.2936 0.0253666 11.4799C0.0852084 11.6662 0.243587 11.8076 0.440827 11.8507C0.638067 11.8939 0.844193 11.8322 0.981538 11.6891L6.07244 6.3709C6.17675 6.26253 6.23098 6.11797 6.2227 5.97033Z" fill="#050523"/>
</svg>
