<svg width="17" height="17" viewBox="0 0 17 17" fill="none" xmlns="http://www.w3.org/2000/svg">
<path d="M15.2132 0.693359H2.05685C1.2492 0.693359 0.595032 1.34427 0.595032 2.1479V15.2388C0.595032 16.0424 1.2492 16.6934 2.05685 16.6934H9.36594V10.1479H7.17321V7.96609H9.36594V6.79445C9.36594 4.57627 10.4521 3.60245 12.3049 3.60245C13.1922 3.60245 13.6615 3.6679 13.8837 3.69772V5.78427H12.6199C11.8335 5.78427 11.5587 6.19736 11.5587 7.03372V7.96609H13.864L13.5511 10.1479H11.5587V16.6934H15.2132C16.0209 16.6934 16.675 16.0424 16.675 15.2388V2.1479C16.675 1.34427 16.0201 0.693359 15.2132 0.693359Z" fill="white"/>
</svg>
