<svg width="17" height="17" viewBox="0 0 17 17" fill="none" xmlns="http://www.w3.org/2000/svg">
<path fill-rule="evenodd" clip-rule="evenodd" d="M0 5.36133C0 2.78799 2.10316 0.693359 4.68869 0.693359H11.3887C13.9749 0.693359 16.08 2.78606 16.08 5.35872V12.0254C16.08 14.5987 13.9768 16.6934 11.3913 16.6934H4.69131C2.10511 16.6934 0 14.6007 0 12.028V5.36133ZM13.3992 4.02702C13.3992 3.65902 13.0992 3.36035 12.7296 3.36035C12.36 3.36035 12.06 3.65902 12.06 4.02702C12.06 4.39502 12.36 4.69368 12.7296 4.69368C13.0992 4.69368 13.3992 4.39502 13.3992 4.02702ZM8.03986 4.69336C10.2569 4.69336 12.0599 6.48736 12.0599 8.69336C12.0599 10.8994 10.2569 12.6934 8.03986 12.6934C5.82283 12.6934 4.01986 10.8994 4.01986 8.69336C4.01986 6.48736 5.82283 4.69336 8.03986 4.69336ZM5.36017 8.69303C5.36017 7.22027 6.56005 6.02637 8.04017 6.02637C9.52029 6.02637 10.7202 7.22027 10.7202 8.69303C10.7202 10.1658 9.52029 11.3597 8.04017 11.3597C6.56005 11.3597 5.36017 10.1658 5.36017 8.69303Z" fill="white"/>
</svg>
