<svg width="144" height="24" viewBox="0 0 144 24" fill="none" xmlns="http://www.w3.org/2000/svg">
<path d="M11.2806 15.4814C11.6812 14.8275 12.0023 14.1257 12.2367 13.3916H6.51688C6.51688 13.3916 6.51687 10.711 7.34535 8.74282H7.32316C8.33472 5.93113 10.6519 3.5545 11.8816 2.53431C12.7064 1.85039 13.337 1.30515 14.2598 0.870102C15.2299 0.427805 16.258 0.134628 17.3111 0L9.71614 0C0 0.0854904 0 20.0845 0 20.0845H4.21452C6.11558 19.9743 8.11466 18.9789 9.54785 17.6148C10.2109 16.9818 10.7932 16.2649 11.2806 15.4814Z" fill="white"/>
<path d="M18.8886 0C16.884 0 14.7185 1.02968 13.1928 2.48112C12.5321 3.11494 11.9518 3.83173 11.4656 4.61458C11.0658 5.26836 10.746 5.97024 10.5132 6.70435H16.2312C16.2312 6.70435 16.2312 9.39444 15.3972 11.3645C15.4051 11.3625 15.4133 11.3625 15.4212 11.3645C14.4078 14.1762 12.0925 16.5528 10.8609 17.573C10.0342 18.2569 9.40548 18.8022 8.48454 19.2372C7.53361 19.6695 6.5272 19.9594 5.49609 20.0978H13.0319C22.7462 19.9991 22.7462 0 22.7462 0H18.8886Z" fill="white"/>
<path d="M26.0749 18.5934L29.607 1.46875H33.2464L29.7124 18.5934H26.0749Z" fill="white"/>
<path d="M36.884 18.8171C36.2962 18.8203 35.7178 18.665 35.2067 18.3668C34.6522 18.0261 34.2151 17.516 33.9566 16.9078C33.6422 16.2391 33.485 15.3417 33.485 14.2158C33.4934 13.2795 33.6177 12.3481 33.8548 11.444C34.0866 10.5059 34.4405 9.60422 34.9071 8.76341C35.3325 7.97993 35.9149 7.29809 36.6158 6.76294C37.2932 6.25551 38.1132 5.98873 38.9515 6.00302C39.5815 5.97488 40.2051 6.1438 40.7397 6.48747C41.2085 6.81809 41.5898 7.26336 41.8493 7.78312H41.9381L42.5298 6.2291H45.4036L42.8276 18.5929H39.9982L40.1295 17.0978H40.0425C39.6814 17.5902 39.2351 18.0101 38.7259 18.3364C38.1679 18.6709 37.5297 18.8374 36.884 18.8171ZM38.3634 15.7983C38.5639 15.7927 38.7612 15.7459 38.9438 15.6608C39.1265 15.5756 39.2906 15.4538 39.4267 15.3025C39.7828 14.9313 40.0693 14.496 40.2719 14.0182C40.5041 13.4851 40.67 12.924 40.7656 12.3483C40.854 11.8053 40.8979 11.2556 40.8969 10.705C40.9125 10.2793 40.8023 9.85871 40.5807 9.49863C40.4845 9.3479 40.3521 9.22518 40.1963 9.14232C40.0405 9.05946 39.8665 9.01926 39.6912 9.02558C39.322 9.03327 38.9708 9.19109 38.7148 9.46443C38.3849 9.80307 38.1174 10.2002 37.9251 10.6366C37.443 11.6988 37.1906 12.8557 37.1854 14.0277C37.1891 15.2094 37.5787 15.7996 38.3541 15.7983H38.3634Z" fill="white"/>
<path d="M46.0306 18.593L48.5733 6.22353H51.4249L51.2493 8.2506H51.338C51.7104 7.58593 52.2237 7.01585 52.8396 6.58259C53.459 6.18098 54.1805 5.97733 54.9127 5.99745C55.9951 5.99745 56.7885 6.33182 57.2927 7.00054C57.797 7.66927 58.0491 8.51404 58.0491 9.53486C58.0425 10.2848 57.9613 11.0322 57.8068 11.7652L56.4032 18.593H52.7638L54.1841 11.5885C54.2285 11.3643 54.2691 11.1231 54.3061 10.8685C54.3397 10.637 54.3577 10.4034 54.3598 10.1694C54.3598 9.38921 54.0312 8.99848 53.3741 8.99722C52.7879 8.99722 52.2775 9.37717 51.8373 10.1124C51.3377 11.0273 50.9896 12.0211 50.8073 13.0533L49.6663 18.5968L46.0306 18.593Z" fill="white"/>
<path d="M63.312 24.0002C62.5674 24.0132 61.8235 23.945 61.0929 23.7969C60.5196 23.6676 59.9583 23.487 59.4156 23.2574V20.079C59.9793 20.3828 60.5757 20.6174 61.1927 20.7782C61.8378 20.9454 62.5007 21.0284 63.1659 21.0251C64.5554 21.0251 65.4325 20.3646 65.7975 19.0437L65.8862 18.6371C65.9494 18.3324 66.0297 18.0318 66.1266 17.7366C66.2283 17.4212 66.2875 17.2256 66.3023 17.1515H66.2043C65.8664 17.5897 65.4669 17.9739 65.0189 18.2913C64.4964 18.6346 63.8835 18.8037 63.2639 18.7758C62.6931 18.7836 62.1314 18.6277 61.6421 18.3255C61.1197 17.9767 60.7168 17.4684 60.49 16.8722C60.2052 16.206 60.0628 15.3315 60.0628 14.2486C60.0702 13.3047 60.1945 12.3656 60.4327 11.454C60.6644 10.5159 61.0184 9.61422 61.4849 8.7734C61.9086 7.98991 62.4876 7.30646 63.1844 6.76723C63.8498 6.26099 64.6589 5.99394 65.4868 6.00732C66.2265 6.00732 66.8146 6.1574 67.2307 6.45756C67.7052 6.82149 68.1102 7.27234 68.4253 7.78742H68.5141L69.1058 6.23339H71.9796L69.3481 18.886C69.0843 20.1778 68.6639 21.1955 68.0869 21.9389C67.5461 22.6536 66.8254 23.2029 66.0027 23.5271C65.1413 23.8517 64.2295 24.012 63.312 24.0002ZM65.0004 15.7988C65.1992 15.7975 65.3955 15.7537 65.577 15.6703C65.7584 15.5869 65.9211 15.4657 66.0545 15.3144C66.3876 14.949 66.6516 14.5232 66.8331 14.0586C67.0484 13.5327 67.2096 12.9852 67.3139 12.4248C67.4203 11.887 67.4754 11.3398 67.4785 10.791C67.4999 10.3389 67.3932 9.89019 67.1715 9.49912C67.0806 9.34546 66.9515 9.21952 66.7974 9.13435C66.6433 9.04918 66.4698 9.00786 66.2949 9.01468C65.9227 9.02346 65.5685 9.18088 65.3074 9.45353C64.9716 9.78947 64.7 10.187 64.5067 10.6257C64.0245 11.6879 63.7722 12.8448 63.767 14.0168C63.7707 15.2061 64.1818 15.8001 65.0004 15.7988Z" fill="white"/>
<path d="M77.8309 18.8177C76.4131 18.8177 75.2912 18.3973 74.4652 17.5563C73.6392 16.7153 73.228 15.5495 73.2317 14.0588C73.226 13.0183 73.3661 11.9824 73.6478 10.983C73.9066 10.0536 74.3264 9.17967 74.8868 8.40311C75.4276 7.66491 76.1269 7.06485 76.9303 6.64961C77.8245 6.20466 78.8089 5.98456 79.8022 6.00748C81.236 6.00748 82.3622 6.42797 83.1808 7.26894C83.9995 8.10991 84.4094 9.29665 84.4106 10.8291C84.4147 11.85 84.2783 12.8663 84.0056 13.8479C83.753 14.7706 83.3367 15.6375 82.7777 16.405C82.2324 17.1457 81.5314 17.7503 80.7269 18.1737C79.826 18.6247 78.8326 18.8456 77.8309 18.8177ZM78.2007 15.8883C78.6939 15.8883 79.1322 15.6407 79.5156 15.1455C79.9312 14.5746 80.23 13.9232 80.394 13.2305C80.6006 12.429 80.7038 11.6031 80.701 10.774C80.7213 10.3084 80.6191 9.84571 80.4051 9.4347C80.3069 9.26908 80.1663 9.13436 79.9987 9.04524C79.8311 8.95613 79.6428 8.91604 79.4545 8.92935C79.2519 8.9292 79.0514 8.97101 78.8649 9.05229C78.6784 9.13357 78.5097 9.25265 78.369 9.4024C78.0254 9.76154 77.7534 10.1862 77.5683 10.6525C77.3421 11.1912 77.1764 11.7546 77.0745 12.3319C76.9664 12.9181 76.9113 13.5134 76.9099 14.1101C76.9099 15.2968 77.3414 15.8895 78.2044 15.8883H78.2007Z" fill="white"/>
<path d="M84.5122 24.0005C84.1453 23.9994 83.7789 23.9727 83.4155 23.9208C83.1028 23.8833 82.7936 23.8198 82.4909 23.7308V20.7557C82.7032 20.8222 82.9194 20.8749 83.1382 20.9134C83.3302 20.9445 83.5244 20.9597 83.7188 20.959C84.1374 20.9663 84.5451 20.8224 84.8709 20.5524C85.2001 20.2827 85.43 19.8324 85.5607 19.2017L88.2588 6.22425H91.9093L89.1021 19.7868C88.9627 20.5211 88.7072 21.2271 88.3458 21.8766C87.9908 22.5109 87.4849 23.0423 86.8756 23.4211C86.2554 23.8061 85.4676 23.9993 84.5122 24.0005ZM90.5741 4.8488C90.125 4.86587 89.6802 4.75262 89.2907 4.52204C88.9468 4.30546 88.7748 3.93374 88.7748 3.40686C88.7748 2.71787 88.9597 2.19227 89.3296 1.83004C89.6994 1.46908 90.232 1.2886 90.9181 1.2886C91.3629 1.27946 91.8021 1.39225 92.1904 1.61536C92.5603 1.83447 92.7452 2.2062 92.7452 2.73054C92.7692 3.29441 92.5758 3.84527 92.2071 4.26367C91.8483 4.65249 91.304 4.84753 90.5741 4.8488Z" fill="white"/>
<path d="M96.4734 18.8172C95.885 18.8202 95.3061 18.6649 94.7942 18.3669C94.2403 18.0261 93.8039 17.516 93.546 16.9079C93.2297 16.2391 93.0744 15.3424 93.0744 14.2159C93.0807 13.28 93.2018 12.3488 93.435 11.4441C93.6676 10.5063 94.0215 9.60469 94.4873 8.76348C94.9139 7.97972 95.4976 7.29788 96.1997 6.763C96.8768 6.25495 97.697 5.9881 98.5353 6.00309C99.1649 5.97461 99.7879 6.14357 100.322 6.48754C100.79 6.81828 101.172 7.26351 101.431 7.78319H101.526L102.117 6.22916H104.989L102.417 18.593H99.5876L99.7189 17.1054H99.632C99.2708 17.5979 98.8245 18.0178 98.3153 18.3441C97.7566 18.6759 97.1184 18.8398 96.4734 18.8172ZM97.9417 15.7984C98.1425 15.7929 98.3402 15.7462 98.5231 15.6611C98.706 15.5759 98.8705 15.454 99.0069 15.3025C99.3624 14.9313 99.6482 14.4959 99.8502 14.0183C100.087 13.486 100.257 12.9248 100.355 12.3484C100.442 11.8052 100.486 11.2556 100.486 10.7051C100.503 10.279 100.392 9.85807 100.168 9.4987C100.072 9.34825 99.9401 9.22571 99.7847 9.14287C99.6292 9.06002 99.4556 9.01966 99.2806 9.02565C98.9114 9.03334 98.5603 9.19116 98.3042 9.4645C97.9744 9.80314 97.7068 10.2003 97.5145 10.6367C97.0324 11.6989 96.78 12.8558 96.7748 14.0278C96.7785 15.2095 97.1675 15.7997 97.9417 15.7984Z" fill="white"/>
<path d="M105.618 18.593L108.163 6.22348H111.014L110.839 8.25055H110.926C111.3 7.58451 111.817 7.01425 112.436 6.58254C113.055 6.18129 113.776 5.97766 114.508 5.99741C115.589 5.99741 116.382 6.33177 116.888 7.00049C117.393 7.66922 117.645 8.51399 117.644 9.53481C117.638 10.2847 117.558 11.0321 117.404 11.7652L116 18.593H112.351L113.777 11.5885C113.822 11.3643 113.862 11.123 113.897 10.8685C113.932 10.6371 113.951 10.4035 113.953 10.1693C113.953 9.38916 113.624 8.99843 112.965 8.99717C112.381 8.99717 111.869 9.36889 111.43 10.1123C110.932 11.0261 110.584 12.0187 110.402 13.0494L109.261 18.593H105.618Z" fill="white"/>
<path d="M122.902 24.0002C122.157 24.0134 121.413 23.9453 120.682 23.7969C120.109 23.6679 119.548 23.4873 119.005 23.2574V20.0791C119.568 20.3828 120.164 20.6174 120.78 20.7782C121.426 20.9453 122.09 21.0283 122.755 21.0251C124.144 21.0251 125.021 20.3647 125.387 19.0437L125.474 18.6371C125.538 18.3324 125.619 18.0318 125.716 17.7366C125.818 17.4213 125.877 17.2256 125.901 17.1515H125.812C125.475 17.5897 125.076 17.9739 124.629 18.2914C124.106 18.6343 123.493 18.8035 122.874 18.7758C122.302 18.7836 121.74 18.6277 121.25 18.3256C120.729 17.976 120.327 17.4679 120.1 16.8722C119.799 16.2035 119.649 15.329 119.649 14.2486C119.657 13.3048 119.781 12.3658 120.019 11.454C120.251 10.5162 120.605 9.61464 121.071 8.77342C121.495 7.98984 122.075 7.3064 122.772 6.76725C123.437 6.26076 124.247 5.99367 125.074 6.00734C125.814 6.00734 126.395 6.15742 126.818 6.45758C127.292 6.82219 127.697 7.27291 128.013 7.78744H128.1L128.693 6.23341H131.565L128.932 18.886C128.669 20.1778 128.249 21.1955 127.671 21.9389C127.131 22.6536 126.411 23.2028 125.589 23.5272C124.728 23.8511 123.818 24.0114 122.902 24.0002ZM124.59 15.7988C124.788 15.7973 124.984 15.7535 125.166 15.6701C125.347 15.5867 125.509 15.4656 125.642 15.3144C125.976 14.9495 126.24 14.5236 126.421 14.0586C126.638 13.5332 126.799 12.9855 126.903 12.4248C127.009 11.8868 127.064 11.3397 127.068 10.791C127.089 10.3389 126.983 9.89021 126.761 9.49914C126.67 9.34589 126.54 9.22028 126.386 9.13517C126.232 9.05005 126.059 9.00848 125.884 9.0147C125.512 9.02348 125.158 9.18089 124.897 9.45355C124.561 9.78949 124.29 10.1871 124.096 10.6257C123.614 11.6879 123.362 12.8448 123.356 14.0168C123.36 15.2061 123.771 15.8001 124.59 15.7988Z" fill="white"/>
<path d="M137.42 18.8178C136.001 18.8178 134.879 18.3973 134.053 17.5563C133.227 16.7154 132.814 15.5495 132.814 14.0588C132.808 13.0182 132.948 11.9822 133.232 10.9831C133.49 10.0533 133.909 9.17927 134.471 8.40317C135.013 7.66363 135.715 7.06341 136.522 6.64967C137.416 6.2043 138.4 5.98418 139.393 6.00754C140.827 6.00754 141.953 6.42803 142.772 7.269C143.591 8.10997 144 9.2967 144 10.8292C144.004 11.8502 143.867 12.8666 143.593 13.848C143.342 14.7713 142.926 15.6384 142.365 16.4051C141.821 17.1466 141.12 17.7514 140.314 18.1738C139.414 18.6247 138.421 18.8456 137.42 18.8178ZM137.79 15.8883C138.283 15.8883 138.722 15.6407 139.107 15.1455C139.525 14.5756 139.826 13.924 139.991 13.2305C140.198 12.4293 140.302 11.6033 140.298 10.7741C140.319 10.3084 140.217 9.84547 140.002 9.43476C139.903 9.26718 139.762 9.13111 139.592 9.04184C139.422 8.95257 139.232 8.91364 139.042 8.92941C138.84 8.92923 138.639 8.97084 138.453 9.05178C138.266 9.13271 138.098 9.25132 137.957 9.40056C137.614 9.7598 137.342 10.1844 137.158 10.6506C136.931 11.1892 136.765 11.7527 136.662 12.33C136.553 12.9161 136.498 13.5115 136.497 14.1082C136.499 15.2962 136.93 15.8896 137.792 15.8883H137.79Z" fill="white"/>
</svg>
