<svg width="20" height="16" viewBox="0 0 20 16" fill="none" xmlns="http://www.w3.org/2000/svg">
<path fill-rule="evenodd" clip-rule="evenodd" d="M18.8589 0.96414C18.101 1.38636 17.2635 1.69425 16.3688 1.85918C15.6564 1.1413 14.6378 0.693359 13.5099 0.693359C11.3481 0.693359 9.59367 2.34676 9.59367 4.38652C9.59367 4.67587 9.62741 4.9572 9.69458 5.22715C6.43885 5.07362 3.55258 3.60412 1.61949 1.36737C1.28174 1.91486 1.08899 2.54964 1.08899 3.22578C1.08899 4.50716 1.78061 5.63797 2.83183 6.29934C2.19082 6.28247 1.58547 6.11417 1.05679 5.84001V5.88429C1.05679 7.6752 2.40706 9.16875 4.20078 9.50661C3.87231 9.59307 3.52585 9.63609 3.16824 9.63609C2.9157 9.63609 2.66937 9.61375 2.43054 9.5703C2.92969 11.0377 4.3756 12.1056 6.09044 12.1343C4.74968 13.126 3.05974 13.716 1.22441 13.716C0.908811 13.716 0.596352 13.6987 0.290039 13.6658C2.02358 14.7123 4.08375 15.3235 6.29507 15.3235C13.502 15.3235 17.4419 9.69683 17.4419 4.81549C17.4419 4.65437 17.4388 4.4945 17.4312 4.33718C18.1972 3.81584 18.8622 3.16587 19.385 2.42563C18.6836 2.71836 17.9282 2.91829 17.1356 3.00644C17.9453 2.54964 18.5659 1.82585 18.8589 0.96414Z" fill="white"/>
</svg>
